<svg xmlns="http://www.w3.org/2000/svg" xmlns:xlink="http://www.w3.org/1999/xlink" width="192" zoomAndPan="magnify" viewBox="0 0 144 143.999998" height="192" preserveAspectRatio="xMidYMid meet" version="1.0"><defs><clipPath id="55512ed3d1"><path d="M 2.523438 14 L 141 14 L 141 129 L 2.523438 129 Z M 2.523438 14 " clip-rule="nonzero"/></clipPath></defs><g clip-path="url(#55512ed3d1)"><path fill="#f9f6f6" d="M 56.039062 14.199219 L 56.199219 14.199219 C 56.375 14.199219 56.554688 14.199219 56.734375 14.199219 L 57.121094 14.199219 C 57.476562 14.199219 57.832031 14.199219 58.191406 14.199219 C 58.578125 14.199219 58.964844 14.199219 59.351562 14.199219 C 60.121094 14.199219 60.890625 14.199219 61.660156 14.199219 C 62.582031 14.199219 63.5 14.199219 64.421875 14.195312 C 66.59375 14.195312 68.769531 14.195312 70.941406 14.195312 C 72.046875 14.195312 73.152344 14.195312 74.261719 14.195312 C 78.828125 14.191406 83.398438 14.191406 87.964844 14.191406 C 91.625 14.191406 95.285156 14.191406 98.941406 14.1875 C 101.570312 14.1875 104.199219 14.1875 106.828125 14.1875 L 106.992188 14.1875 C 108.636719 14.1875 110.355469 14.1875 112.144531 14.1875 C 113.828125 14.1875 115.511719 14.183594 117.195312 14.183594 C 118.9375 14.183594 120.683594 14.183594 122.425781 14.183594 C 123.429688 14.183594 124.433594 14.183594 125.441406 14.183594 C 126.109375 14.179688 126.78125 14.179688 127.453125 14.183594 C 127.835938 14.183594 128.21875 14.183594 128.601562 14.179688 C 128.949219 14.179688 129.296875 14.179688 129.648438 14.183594 C 129.769531 14.183594 129.894531 14.183594 130.019531 14.179688 C 131.917969 14.171875 133.71875 14.664062 135.371094 15.601562 C 136.054688 16.007812 136.667969 16.480469 137.25 17.019531 L 137.367188 17.128906 C 137.953125 17.675781 138.453125 18.265625 138.917969 18.914062 L 139.0625 19.117188 C 139.996094 20.492188 140.554688 22.214844 140.726562 23.859375 C 140.839844 25.46875 140.828125 27.136719 140.4375 28.707031 L 140.390625 28.886719 C 139.910156 30.726562 138.847656 32.277344 137.554688 33.636719 L 137.417969 33.785156 C 136.675781 34.566406 135.765625 35.117188 134.820312 35.609375 L 134.671875 35.691406 C 134.324219 35.867188 133.976562 36.015625 133.605469 36.140625 L 133.441406 36.199219 C 132.546875 36.507812 131.621094 36.757812 130.671875 36.757812 L 129.6875 36.757812 C 129.363281 36.757812 129.039062 36.757812 128.714844 36.757812 C 128.359375 36.753906 128.007812 36.753906 127.65625 36.753906 C 127.035156 36.753906 126.417969 36.753906 125.800781 36.753906 C 124.792969 36.75 123.785156 36.75 122.78125 36.75 L 121.457031 36.75 L 119.527344 36.746094 C 116.644531 36.746094 113.761719 36.742188 110.878906 36.742188 C 109.277344 36.742188 107.679688 36.742188 106.078125 36.742188 L 101.441406 36.742188 C 98.164062 36.742188 94.882812 36.738281 91.605469 36.734375 C 88.128906 36.730469 84.652344 36.726562 81.175781 36.730469 L 79.433594 36.730469 C 77.902344 36.730469 76.371094 36.726562 74.839844 36.722656 C 73.296875 36.722656 71.757812 36.71875 70.21875 36.722656 C 69.304688 36.726562 68.390625 36.722656 67.476562 36.71875 C 66.863281 36.71875 66.25 36.71875 65.640625 36.71875 C 65.292969 36.722656 64.945312 36.722656 64.597656 36.71875 C 62.875 36.679688 62.875 36.679688 61.265625 37.222656 C 61.035156 37.359375 60.820312 37.507812 60.601562 37.660156 C 60.484375 37.738281 60.367188 37.8125 60.25 37.886719 C 59.652344 38.273438 59.089844 38.707031 58.554688 39.179688 L 58.433594 39.28125 C 56.871094 40.652344 55.820312 42.265625 55.125 44.230469 C 54.527344 45.984375 53.871094 48.082031 54.152344 49.953125 L 54.179688 50.136719 C 54.523438 52.378906 55.207031 54.632812 56.621094 56.441406 C 56.757812 56.609375 56.894531 56.773438 57.035156 56.9375 L 57.183594 57.105469 C 58.527344 58.542969 60.511719 59.382812 62.347656 59.972656 C 63.839844 60.425781 65.277344 60.765625 66.835938 60.757812 C 66.964844 60.757812 67.089844 60.757812 67.21875 60.757812 C 67.5625 60.757812 67.910156 60.757812 68.253906 60.757812 C 68.625 60.753906 69 60.753906 69.375 60.757812 C 70.019531 60.757812 70.667969 60.753906 71.3125 60.753906 C 72.25 60.753906 73.1875 60.753906 74.128906 60.753906 C 75.652344 60.753906 77.179688 60.753906 78.703125 60.753906 L 78.980469 60.753906 C 80.363281 60.753906 81.746094 60.753906 83.128906 60.75 L 83.402344 60.75 C 84.921875 60.75 86.441406 60.75 87.960938 60.753906 C 88.894531 60.753906 89.828125 60.753906 90.761719 60.75 C 91.402344 60.75 92.042969 60.75 92.6875 60.75 C 93.054688 60.75 93.421875 60.75 93.792969 60.75 C 96.136719 60.738281 98.371094 60.988281 100.644531 61.59375 L 100.984375 61.679688 C 101.308594 61.765625 101.636719 61.855469 101.960938 61.945312 L 102.238281 62.019531 C 105.574219 62.957031 108.617188 64.511719 111.21875 66.800781 L 111.382812 66.941406 C 112.292969 67.726562 113.195312 68.542969 113.972656 69.457031 C 114.0625 69.5625 114.15625 69.667969 114.253906 69.769531 C 114.761719 70.316406 115.207031 70.90625 115.65625 71.503906 C 115.761719 71.640625 115.867188 71.78125 115.976562 71.921875 C 116.335938 72.375 116.667969 72.839844 116.984375 73.324219 C 117.210938 73.664062 117.441406 73.996094 117.675781 74.332031 C 121.378906 79.558594 123.484375 85.214844 124.097656 91.609375 C 124.179688 92.503906 124.210938 93.390625 124.210938 94.289062 L 124.210938 94.480469 C 124.199219 99.042969 123.210938 103.664062 121.257812 107.796875 C 121.121094 108.097656 120.996094 108.402344 120.875 108.707031 C 120.652344 109.261719 120.394531 109.792969 120.117188 110.328125 C 120.007812 110.542969 119.898438 110.757812 119.789062 110.972656 C 119.328125 111.882812 118.847656 112.777344 118.324219 113.65625 L 118.175781 113.90625 C 117.4375 115.136719 116.625 116.320312 115.695312 117.417969 C 115.632812 117.496094 115.570312 117.570312 115.503906 117.648438 C 115.328125 117.859375 115.152344 118.066406 114.972656 118.277344 C 114.863281 118.402344 114.757812 118.53125 114.648438 118.664062 C 114.136719 119.273438 113.59375 119.84375 113.03125 120.40625 L 112.824219 120.617188 C 112.429688 121.007812 112.015625 121.378906 111.578125 121.726562 C 111.367188 121.902344 111.167969 122.085938 110.964844 122.277344 C 110.523438 122.683594 110.042969 122.988281 109.527344 123.289062 L 109.242188 123.460938 C 108.492188 123.90625 107.730469 124.332031 106.957031 124.742188 C 106.726562 124.863281 106.5 124.988281 106.269531 125.109375 C 104.480469 126.066406 102.632812 126.90625 100.699219 127.53125 C 100.539062 127.582031 100.378906 127.636719 100.21875 127.691406 C 98.515625 128.269531 96.6875 128.527344 94.902344 128.726562 L 94.742188 128.746094 C 94.0625 128.816406 93.382812 128.8125 92.699219 128.8125 C 92.558594 128.8125 92.417969 128.8125 92.28125 128.8125 C 91.898438 128.8125 91.515625 128.8125 91.128906 128.8125 C 90.714844 128.8125 90.296875 128.8125 89.878906 128.8125 C 89.054688 128.8125 88.226562 128.8125 87.398438 128.8125 C 86.460938 128.816406 85.519531 128.816406 84.582031 128.816406 C 82.195312 128.816406 79.804688 128.816406 77.417969 128.816406 C 76.230469 128.816406 75.039062 128.816406 73.851562 128.816406 C 68.9375 128.816406 64.027344 128.820312 59.109375 128.820312 C 55.175781 128.820312 51.242188 128.820312 47.308594 128.824219 C 44.480469 128.824219 41.65625 128.828125 38.828125 128.828125 L 38.652344 128.828125 C 36.890625 128.828125 35.042969 128.828125 33.109375 128.828125 C 31.300781 128.828125 29.488281 128.828125 27.679688 128.828125 C 25.855469 128.828125 24.03125 128.832031 22.210938 128.828125 C 21.078125 128.828125 19.945312 128.828125 18.816406 128.832031 C 18.09375 128.832031 17.371094 128.832031 16.652344 128.832031 C 16.238281 128.832031 15.828125 128.832031 15.417969 128.832031 C 15.042969 128.832031 14.667969 128.832031 14.292969 128.832031 C 14.160156 128.832031 14.027344 128.832031 13.890625 128.832031 C 11.933594 128.839844 10.027344 128.445312 8.300781 127.496094 C 7.625 127.105469 7.007812 126.660156 6.417969 126.144531 L 6.226562 125.988281 C 5.714844 125.554688 5.3125 125.058594 4.914062 124.523438 C 4.835938 124.421875 4.757812 124.316406 4.679688 124.214844 C 3.632812 122.808594 3.035156 121.125 2.792969 119.402344 C 2.757812 119.070312 2.761719 118.738281 2.757812 118.402344 L 2.757812 118.160156 C 2.757812 117.988281 2.757812 117.820312 2.757812 117.648438 C 2.753906 117.394531 2.753906 117.136719 2.75 116.882812 C 2.746094 115.652344 2.835938 114.519531 3.246094 113.355469 C 3.265625 113.289062 3.289062 113.222656 3.3125 113.152344 C 3.953125 111.347656 5.054688 109.726562 6.492188 108.464844 C 8.121094 107.121094 9.964844 106.324219 12.03125 105.960938 C 12.707031 105.859375 13.378906 105.875 14.054688 105.875 L 14.46875 105.875 C 14.847656 105.875 15.230469 105.875 15.609375 105.875 C 16.023438 105.875 16.433594 105.875 16.847656 105.875 C 17.570312 105.875 18.292969 105.871094 19.019531 105.875 C 20.09375 105.875 21.171875 105.871094 22.246094 105.871094 L 23.941406 105.871094 C 24.746094 105.871094 25.550781 105.871094 26.355469 105.871094 L 27.179688 105.871094 C 30.503906 105.871094 33.832031 105.871094 37.160156 105.867188 L 38.898438 105.867188 C 41.765625 105.863281 44.628906 105.863281 47.496094 105.863281 C 50.296875 105.859375 53.101562 105.859375 55.902344 105.859375 L 59 105.859375 C 61.800781 105.859375 64.601562 105.859375 67.402344 105.855469 L 67.574219 105.855469 C 69.347656 105.855469 71.121094 105.855469 72.890625 105.851562 L 73.058594 105.851562 C 74.851562 105.851562 76.644531 105.851562 78.4375 105.851562 C 80.292969 105.851562 82.148438 105.851562 84.003906 105.851562 C 85.074219 105.847656 86.144531 105.847656 87.214844 105.847656 C 87.929688 105.851562 88.644531 105.847656 89.359375 105.847656 C 89.765625 105.847656 90.171875 105.847656 90.578125 105.847656 C 90.949219 105.847656 91.320312 105.847656 91.691406 105.847656 C 91.824219 105.847656 91.957031 105.847656 92.089844 105.847656 C 92.96875 105.863281 92.96875 105.863281 93.792969 105.585938 C 94.140625 105.359375 94.441406 105.09375 94.75 104.820312 L 94.976562 104.625 C 96.429688 103.335938 97.546875 101.863281 98.179688 100.011719 C 98.660156 98.546875 98.90625 97.0625 98.992188 95.527344 C 99 95.367188 99.011719 95.207031 99.023438 95.050781 C 99.109375 93.144531 98.285156 91.058594 97.441406 89.386719 C 97.210938 88.941406 96.949219 88.527344 96.648438 88.125 L 96.5 87.925781 C 95.414062 86.519531 93.9375 85.625 92.320312 84.9375 C 91.65625 84.664062 90.964844 84.453125 90.273438 84.253906 L 90.144531 84.214844 C 89.90625 84.167969 89.671875 84.171875 89.425781 84.171875 L 89.257812 84.167969 C 89.074219 84.167969 88.886719 84.167969 88.703125 84.167969 C 88.566406 84.167969 88.433594 84.167969 88.300781 84.167969 C 88.007812 84.167969 87.714844 84.167969 87.421875 84.167969 C 86.945312 84.167969 86.472656 84.167969 85.996094 84.167969 C 85.304688 84.167969 84.613281 84.167969 83.921875 84.167969 C 82.828125 84.167969 81.734375 84.164062 80.640625 84.164062 L 79.515625 84.164062 L 79.234375 84.160156 C 78.167969 84.160156 77.101562 84.160156 76.035156 84.160156 L 75.738281 84.15625 C 74.164062 84.15625 72.585938 84.15625 71.011719 84.15625 C 69.390625 84.152344 67.773438 84.152344 66.152344 84.148438 C 65.15625 84.148438 64.160156 84.148438 63.160156 84.148438 C 62.476562 84.148438 61.789062 84.148438 61.105469 84.144531 C 60.710938 84.144531 60.316406 84.144531 59.921875 84.144531 C 55.847656 84.152344 51.972656 83.449219 48.308594 81.597656 C 48.246094 81.566406 48.179688 81.535156 48.117188 81.503906 C 46.722656 80.8125 45.433594 79.976562 44.210938 79.019531 L 44.003906 78.859375 C 43.816406 78.710938 43.632812 78.5625 43.449219 78.414062 L 43.226562 78.230469 C 42.632812 77.742188 42.078125 77.207031 41.53125 76.660156 L 41.320312 76.453125 C 40.859375 75.992188 40.441406 75.507812 40.035156 74.996094 C 39.898438 74.835938 39.761719 74.675781 39.625 74.511719 C 39.285156 74.117188 38.964844 73.710938 38.648438 73.292969 C 38.457031 73.042969 38.261719 72.792969 38.066406 72.542969 C 35.921875 69.804688 34.027344 66.941406 32.445312 63.839844 L 32.347656 63.652344 C 31.628906 62.242188 31.128906 60.734375 30.703125 59.210938 L 30.632812 58.960938 C 29.976562 56.585938 29.636719 54.152344 29.410156 51.699219 L 29.386719 51.441406 C 29.1875 48.890625 29.167969 46.238281 29.714844 43.730469 C 29.75 43.550781 29.785156 43.375 29.820312 43.195312 C 30.269531 40.960938 31.085938 38.835938 32.164062 36.832031 C 32.429688 36.335938 32.640625 35.835938 32.828125 35.308594 C 33.097656 34.597656 33.394531 33.921875 33.742188 33.246094 C 33.84375 33.046875 33.945312 32.84375 34.042969 32.640625 C 35.128906 30.453125 36.453125 28.402344 37.988281 26.503906 L 38.167969 26.28125 C 38.496094 25.871094 38.839844 25.476562 39.191406 25.089844 C 39.339844 24.925781 39.480469 24.761719 39.625 24.597656 C 39.898438 24.28125 40.191406 23.988281 40.492188 23.695312 C 40.703125 23.484375 40.917969 23.269531 41.128906 23.054688 C 41.617188 22.554688 42.109375 22.078125 42.65625 21.644531 C 42.832031 21.507812 42.992188 21.363281 43.15625 21.210938 C 43.683594 20.738281 44.253906 20.324219 44.816406 19.902344 L 44.96875 19.789062 C 45.613281 19.308594 46.269531 18.847656 46.941406 18.40625 C 47.101562 18.300781 47.261719 18.195312 47.421875 18.089844 C 47.535156 18.019531 47.644531 17.945312 47.757812 17.871094 L 47.910156 17.773438 C 48.332031 17.496094 48.773438 17.253906 49.21875 17.019531 L 49.351562 16.949219 C 54.535156 14.203125 54.535156 14.203125 56.039062 14.199219 " fill-opacity="1" fill-rule="nonzero"/></g></svg>