<svg width="20" height="26" viewBox="0 0 20 26" fill="none" xmlns="http://www.w3.org/2000/svg">
<g id="Perfil">
<path d="M10 0C11.4127 0 12.7937 0.381218 13.9684 1.09545C15.143 1.80968 16.0585 2.82484 16.5991 4.01256C17.1398 5.20028 17.2812 6.50721 17.0056 7.76809C16.73 9.02896 16.0497 10.1872 15.0508 11.0962C14.0518 12.0052 12.7791 12.6243 11.3935 12.8751C10.0079 13.1259 8.57173 12.9972 7.26655 12.5052C5.96136 12.0132 4.8458 11.1801 4.06093 10.1112C3.27606 9.04229 2.85714 7.78558 2.85714 6.5L2.86429 6.2179C2.94417 4.54448 3.73087 2.96371 5.06032 1.80526C6.38977 0.646804 8.15934 9.67752e-05 10 0Z" fill="#6A62DC"/>
<path d="M12.8571 15.6C14.7515 15.6 16.5684 16.2848 17.9079 17.5038C19.2475 18.7228 20 20.3761 20 22.1V23.4C20 24.0896 19.699 24.7509 19.1632 25.2385C18.6273 25.7261 17.9006 26 17.1429 26H2.85714C2.09938 26 1.37266 25.7261 0.836838 25.2385C0.301019 24.7509 0 24.0896 0 23.4V22.1C0 20.3761 0.752549 18.7228 2.09209 17.5038C3.43164 16.2848 5.24845 15.6 7.14286 15.6H12.8571Z" fill="#6A62DC"/>
<path d="M10 0C11.4127 0 12.7937 0.381218 13.9684 1.09545C15.143 1.80968 16.0585 2.82484 16.5991 4.01256C17.1398 5.20028 17.2812 6.50721 17.0056 7.76809C16.73 9.02896 16.0497 10.1872 15.0508 11.0962C14.0518 12.0052 12.7791 12.6243 11.3935 12.8751C10.0079 13.1259 8.57173 12.9972 7.26655 12.5052C5.96136 12.0132 4.8458 11.1801 4.06093 10.1112C3.27606 9.04229 2.85714 7.78558 2.85714 6.5L2.86429 6.2179C2.94417 4.54448 3.73087 2.96371 5.06032 1.80526C6.38977 0.646804 8.15934 9.67752e-05 10 0Z" stroke="#6A62DC"/>
<path d="M12.8571 15.6C14.7515 15.6 16.5684 16.2848 17.9079 17.5038C19.2475 18.7228 20 20.3761 20 22.1V23.4C20 24.0896 19.699 24.7509 19.1632 25.2385C18.6273 25.7261 17.9006 26 17.1429 26H2.85714C2.09938 26 1.37266 25.7261 0.836838 25.2385C0.301019 24.7509 0 24.0896 0 23.4V22.1C0 20.3761 0.752549 18.7228 2.09209 17.5038C3.43164 16.2848 5.24845 15.6 7.14286 15.6H12.8571Z" stroke="#6A62DC"/>
</g>
</svg>
