<svg xmlns="http://www.w3.org/2000/svg" xmlns:xlink="http://www.w3.org/1999/xlink" width="4690" zoomAndPan="magnify" viewBox="0 0 3517.5 3517.499861" height="4690" preserveAspectRatio="xMidYMid meet" version="1.0"><defs><clipPath id="678eb8335e"><path d="M 47 338 L 3471 338 L 3471 3179.6875 L 47 3179.6875 Z M 47 338 " clip-rule="nonzero"/></clipPath></defs><g clip-path="url(#678eb8335e)"><path fill="#6a62dc" d="M 1369.070312 338.628906 L 1373.035156 338.617188 C 1377.449219 338.613281 1381.863281 338.613281 1386.277344 338.621094 L 1395.875 338.609375 C 1404.722656 338.601562 1413.570312 338.597656 1422.417969 338.601562 C 1432.019531 338.601562 1441.625 338.597656 1451.230469 338.585938 C 1470.300781 338.574219 1489.375 338.566406 1508.449219 338.570312 C 1531.285156 338.5625 1554.121094 338.554688 1576.960938 338.539062 C 1630.855469 338.511719 1684.753906 338.5 1738.648438 338.488281 C 1766.070312 338.484375 1793.492188 338.480469 1820.914062 338.472656 C 1934.234375 338.433594 2047.53125 338.414062 2160.808594 338.414062 C 2251.535156 338.410156 2342.265625 338.382812 2432.996094 338.335938 C 2498.183594 338.304688 2563.367188 338.277344 2628.554688 338.269531 L 2632.617188 338.269531 C 2673.375 338.257812 2715.972656 338.257812 2760.414062 338.257812 C 2802.152344 338.257812 2843.894531 338.242188 2885.636719 338.210938 C 2928.863281 338.183594 2972.09375 338.175781 3015.324219 338.191406 C 3040.238281 338.199219 3065.15625 338.191406 3090.074219 338.164062 C 3106.726562 338.144531 3123.375 338.144531 3140.023438 338.164062 C 3149.507812 338.175781 3158.992188 338.171875 3168.472656 338.152344 C 3177.113281 338.132812 3185.757812 338.132812 3194.398438 338.160156 C 3197.492188 338.164062 3200.585938 338.160156 3203.679688 338.144531 C 3250.671875 337.921875 3295.417969 350.15625 3336.332031 373.40625 C 3353.289062 383.445312 3368.492188 395.117188 3382.929688 408.5 L 3385.871094 411.21875 C 3400.363281 424.796875 3412.796875 439.398438 3424.332031 455.546875 L 3427.898438 460.5 C 3451.019531 494.632812 3464.867188 537.359375 3469.121094 578.160156 C 3471.9375 618.058594 3471.644531 659.386719 3461.972656 698.308594 L 3460.871094 702.769531 C 3448.953125 748.421875 3422.546875 786.921875 3390.460938 820.632812 L 3387.078125 824.3125 C 3368.734375 843.703125 3346.179688 857.320312 3322.710938 869.558594 L 3318.988281 871.515625 C 3310.394531 875.941406 3301.726562 879.558594 3292.601562 882.734375 L 3288.460938 884.183594 C 3266.277344 891.765625 3243.398438 898.039062 3219.820312 898.011719 L 3212.332031 898.015625 L 3204.15625 897.992188 L 3195.390625 897.988281 C 3187.34375 897.984375 3179.292969 897.972656 3171.246094 897.957031 C 3162.5 897.941406 3153.75 897.933594 3145.003906 897.929688 C 3129.660156 897.917969 3114.320312 897.902344 3098.980469 897.878906 C 3074.023438 897.84375 3049.066406 897.820312 3024.109375 897.800781 L 2997.933594 897.78125 L 2991.285156 897.773438 L 2943.496094 897.730469 C 2871.984375 897.671875 2800.476562 897.636719 2728.96875 897.621094 C 2689.296875 897.617188 2649.628906 897.613281 2609.953125 897.613281 L 2494.972656 897.597656 C 2413.652344 897.597656 2332.332031 897.53125 2251.011719 897.402344 C 2164.796875 897.289062 2078.585938 897.246094 1992.371094 897.289062 L 1956.375 897.304688 L 1949.21875 897.308594 C 1911.238281 897.320312 1873.253906 897.261719 1835.269531 897.175781 C 1797.078125 897.085938 1758.890625 897.078125 1720.699219 897.144531 C 1698.015625 897.179688 1675.339844 897.160156 1652.660156 897.054688 C 1637.492188 896.992188 1622.324219 897.003906 1607.160156 897.074219 C 1598.53125 897.113281 1589.902344 897.121094 1581.269531 897.035156 C 1538.558594 896.015625 1538.558594 896.015625 1498.652344 909.519531 C 1492.992188 912.902344 1487.609375 916.566406 1482.226562 920.371094 C 1479.339844 922.265625 1476.445312 924.144531 1473.539062 926.015625 C 1458.699219 935.621094 1444.734375 946.382812 1431.417969 958.007812 L 1428.5 960.542969 C 1389.664062 994.527344 1363.632812 1034.621094 1346.410156 1083.285156 C 1331.613281 1126.847656 1315.289062 1178.839844 1322.265625 1225.238281 L 1322.9375 1229.746094 C 1331.472656 1285.367188 1348.425781 1341.253906 1383.546875 1386.136719 C 1386.894531 1390.269531 1390.304688 1394.347656 1393.777344 1398.371094 L 1397.449219 1402.625 C 1430.75 1438.242188 1479.972656 1459.050781 1525.511719 1473.644531 C 1562.480469 1484.882812 1598.1875 1493.375 1636.863281 1493.136719 C 1640.007812 1493.140625 1643.152344 1493.144531 1646.296875 1493.152344 C 1654.855469 1493.164062 1663.410156 1493.140625 1671.964844 1493.113281 C 1681.226562 1493.089844 1690.488281 1493.097656 1699.753906 1493.101562 C 1715.789062 1493.105469 1731.824219 1493.09375 1747.855469 1493.0625 C 1771.117188 1493.027344 1794.371094 1493.03125 1817.628906 1493.046875 C 1855.46875 1493.074219 1893.304688 1493.082031 1931.144531 1493.074219 L 1937.996094 1493.074219 C 1972.28125 1493.0625 2006.570312 1493.039062 2040.859375 1493 L 2047.667969 1492.992188 C 2085.328125 1492.957031 2122.984375 1492.960938 2160.644531 1493.007812 C 2183.796875 1493.03125 2206.949219 1493.015625 2230.105469 1492.960938 C 2246.023438 1492.921875 2261.941406 1492.921875 2277.855469 1492.960938 C 2287 1492.980469 2296.140625 1492.980469 2305.28125 1492.929688 C 2363.421875 1492.628906 2418.820312 1498.894531 2475.15625 1513.871094 L 2483.601562 1516.054688 C 2491.703125 1518.171875 2499.785156 1520.34375 2507.855469 1522.574219 L 2514.75 1524.472656 C 2597.441406 1547.664062 2672.902344 1586.277344 2737.445312 1643.015625 L 2741.496094 1646.5 C 2764.039062 1665.953125 2786.394531 1686.195312 2805.722656 1708.894531 C 2807.988281 1711.515625 2810.300781 1714.09375 2812.660156 1716.628906 C 2825.265625 1730.191406 2836.296875 1744.8125 2847.421875 1759.585938 C 2850.066406 1763.066406 2852.738281 1766.527344 2855.445312 1769.960938 C 2864.300781 1781.234375 2872.570312 1792.742188 2880.417969 1804.726562 C 2885.96875 1813.179688 2891.707031 1821.472656 2897.554688 1829.722656 C 2989.34375 1959.367188 3041.554688 2099.65625 3056.835938 2258.171875 C 3058.84375 2280.363281 3059.632812 2302.34375 3059.601562 2324.609375 L 3059.59375 2329.355469 C 3059.320312 2442.578125 3034.832031 2557.09375 2986.382812 2659.664062 C 2982.964844 2667.0625 2979.921875 2674.59375 2976.914062 2682.167969 C 2971.347656 2695.949219 2964.957031 2709.164062 2958.125 2722.355469 C 2955.382812 2727.683594 2952.683594 2733.03125 2949.988281 2738.382812 C 2938.511719 2760.984375 2926.570312 2783.167969 2913.636719 2804.960938 L 2909.980469 2811.132812 C 2891.652344 2841.679688 2871.464844 2871.007812 2848.476562 2898.234375 C 2846.890625 2900.121094 2845.308594 2902.011719 2843.675781 2903.960938 C 2839.308594 2909.148438 2834.921875 2914.320312 2830.511719 2919.476562 C 2827.816406 2922.660156 2825.136719 2925.859375 2822.476562 2929.070312 C 2809.804688 2944.175781 2796.277344 2958.359375 2782.375 2972.332031 L 2777.207031 2977.550781 C 2767.441406 2987.277344 2757.164062 2996.429688 2746.375 3005.007812 C 2741.066406 3009.382812 2736.117188 3014.011719 2731.132812 3018.746094 C 2720.191406 3028.785156 2708.21875 3036.355469 2695.457031 3043.84375 L 2688.449219 3048.019531 C 2669.824219 3059.101562 2650.929688 3069.703125 2631.769531 3079.824219 C 2626.054688 3082.84375 2620.363281 3085.910156 2614.675781 3088.972656 C 2570.285156 3112.636719 2524.5 3133.539062 2476.5625 3148.957031 C 2472.582031 3150.253906 2468.621094 3151.601562 2464.675781 3153 C 2422.433594 3167.300781 2377.039062 3173.695312 2332.839844 3178.632812 L 2328.871094 3179.109375 C 2311.980469 3180.90625 2295.113281 3180.78125 2278.15625 3180.761719 C 2274.699219 3180.765625 2271.242188 3180.769531 2267.785156 3180.773438 C 2258.28125 3180.785156 2248.78125 3180.785156 2239.277344 3180.78125 C 2228.941406 3180.78125 2218.601562 3180.785156 2208.265625 3180.796875 C 2187.761719 3180.808594 2167.257812 3180.816406 2146.757812 3180.816406 C 2123.457031 3180.820312 2100.160156 3180.828125 2076.863281 3180.839844 C 2017.65625 3180.867188 1958.449219 3180.886719 1899.246094 3180.894531 C 1869.761719 3180.898438 1840.273438 3180.90625 1810.789062 3180.914062 C 1688.976562 3180.90625 1567.132812 3180.925781 1445.261719 3180.96875 C 1347.710938 3180.976562 1250.15625 3181 1152.605469 3181.046875 C 1082.496094 3181.078125 1012.386719 3181.109375 942.277344 3181.117188 L 937.90625 3181.117188 C 894.207031 3181.15625 848.390625 3181.160156 800.457031 3181.125 C 755.574219 3181.125 710.691406 3181.140625 665.808594 3181.171875 C 620.59375 3181.199219 575.375 3181.207031 530.160156 3181.195312 C 502.113281 3181.183594 474.070312 3181.191406 446.027344 3181.222656 C 428.128906 3181.238281 410.226562 3181.238281 392.328125 3181.21875 C 382.136719 3181.207031 371.941406 3181.210938 361.746094 3181.230469 C 352.457031 3181.25 343.167969 3181.25 333.875 3181.222656 C 330.550781 3181.21875 327.230469 3181.222656 323.90625 3181.238281 C 275.382812 3181.449219 228.050781 3171.710938 185.292969 3148.160156 C 168.476562 3138.480469 153.167969 3127.441406 138.558594 3114.648438 L 133.839844 3110.753906 C 121.15625 3099.976562 111.195312 3087.707031 101.308594 3074.414062 C 99.386719 3071.84375 97.4375 3069.285156 95.46875 3066.75 C 69.535156 3031.925781 54.640625 2990.148438 48.636719 2947.40625 C 47.800781 2939.175781 47.882812 2930.914062 47.847656 2922.652344 L 47.816406 2916.609375 C 47.796875 2912.394531 47.785156 2908.175781 47.777344 2903.960938 C 47.757812 2897.613281 47.703125 2891.265625 47.640625 2884.921875 C 47.488281 2854.460938 49.777344 2826.378906 59.875 2797.433594 C 60.4375 2795.777344 61.007812 2794.125 61.589844 2792.421875 C 77.40625 2747.691406 104.800781 2707.507812 140.441406 2676.171875 C 180.785156 2642.847656 226.519531 2623.136719 277.820312 2614.066406 C 294.488281 2611.609375 311.171875 2611.921875 327.976562 2611.945312 L 338.234375 2611.9375 C 347.652344 2611.929688 357.066406 2611.929688 366.484375 2611.9375 C 376.722656 2611.9375 386.960938 2611.933594 397.195312 2611.925781 C 415.144531 2611.917969 433.09375 2611.914062 451.042969 2611.917969 C 477.730469 2611.917969 504.421875 2611.914062 531.109375 2611.902344 L 569.265625 2611.890625 L 573.144531 2611.890625 C 593.078125 2611.882812 613.007812 2611.875 632.9375 2611.875 L 637.019531 2611.875 L 653.421875 2611.871094 C 735.90625 2611.894531 818.394531 2611.863281 900.890625 2611.773438 L 944.042969 2611.75 C 1015.121094 2611.675781 1086.175781 2611.644531 1157.203125 2611.648438 C 1226.695312 2611.617188 1296.1875 2611.59375 1365.675781 2611.585938 L 1370.207031 2611.585938 L 1442.527344 2611.574219 C 1511.957031 2611.5625 1581.382812 2611.546875 1650.816406 2611.507812 L 1655.140625 2611.503906 C 1699.105469 2611.472656 1743.042969 2611.445312 1786.960938 2611.421875 L 1791.144531 2611.417969 C 1835.601562 2611.390625 1880.0625 2611.382812 1924.523438 2611.390625 C 1970.535156 2611.402344 2016.550781 2611.382812 2062.5625 2611.335938 C 2089.101562 2611.308594 2115.640625 2611.304688 2142.175781 2611.328125 C 2159.890625 2611.339844 2177.601562 2611.328125 2195.3125 2611.292969 C 2205.410156 2611.273438 2215.511719 2611.273438 2225.613281 2611.292969 C 2234.800781 2611.316406 2243.984375 2611.304688 2253.171875 2611.265625 C 2256.476562 2611.257812 2259.785156 2611.265625 2263.089844 2611.28125 C 2284.890625 2611.648438 2284.890625 2611.648438 2305.3125 2604.753906 C 2313.910156 2599.207031 2321.410156 2592.601562 2329.074219 2585.839844 L 2334.617188 2580.996094 C 2370.648438 2549.027344 2398.433594 2512.511719 2414.113281 2466.574219 C 2425.964844 2430.28125 2432.136719 2393.40625 2434.199219 2355.328125 C 2434.417969 2351.386719 2434.703125 2347.445312 2435.003906 2343.507812 C 2437.175781 2296.269531 2416.675781 2244.523438 2395.777344 2203.046875 C 2390.023438 2192.027344 2383.597656 2181.773438 2376.121094 2171.824219 L 2372.4375 2166.886719 C 2345.492188 2132.015625 2308.875 2109.824219 2268.78125 2092.710938 C 2252.289062 2085.984375 2235.152344 2080.769531 2218.042969 2075.847656 L 2214.867188 2074.851562 C 2208.871094 2073.632812 2203.140625 2073.730469 2197.019531 2073.726562 L 2192.878906 2073.71875 C 2188.269531 2073.710938 2183.664062 2073.714844 2179.054688 2073.71875 C 2175.726562 2073.71875 2172.402344 2073.714844 2169.074219 2073.707031 C 2161.824219 2073.699219 2154.578125 2073.695312 2147.328125 2073.699219 C 2135.535156 2073.699219 2123.738281 2073.695312 2111.941406 2073.679688 C 2094.808594 2073.667969 2077.671875 2073.65625 2060.539062 2073.648438 C 2033.40625 2073.640625 2006.277344 2073.609375 1979.144531 2073.570312 L 1951.28125 2073.535156 L 1944.242188 2073.527344 C 1917.796875 2073.492188 1891.351562 2073.460938 1864.902344 2073.433594 L 1857.578125 2073.425781 C 1818.507812 2073.386719 1779.441406 2073.363281 1740.375 2073.351562 C 1700.214844 2073.335938 1660.050781 2073.292969 1619.886719 2073.222656 C 1595.152344 2073.179688 1570.417969 2073.164062 1545.683594 2073.175781 C 1528.679688 2073.179688 1511.675781 2073.160156 1494.675781 2073.117188 C 1484.894531 2073.089844 1475.117188 2073.085938 1465.335938 2073.101562 C 1364.285156 2073.300781 1268.265625 2055.828125 1177.359375 2009.984375 C 1175.785156 2009.203125 1174.210938 2008.421875 1172.585938 2007.617188 C 1138.023438 1990.4375 1106.121094 1969.753906 1075.738281 1946 L 1070.613281 1942.027344 C 1066.007812 1938.386719 1061.441406 1934.691406 1056.921875 1930.945312 L 1051.378906 1926.460938 C 1036.582031 1914.28125 1022.863281 1901.050781 1009.285156 1887.542969 L 1004.046875 1882.355469 C 992.640625 1870.898438 982.324219 1858.878906 972.234375 1846.257812 C 968.859375 1842.230469 965.429688 1838.25 962.003906 1834.261719 C 953.621094 1824.421875 945.644531 1814.320312 937.824219 1804.027344 C 933.0625 1797.757812 928.210938 1791.558594 923.355469 1785.363281 C 870.1875 1717.453125 823.246094 1646.480469 784.046875 1569.621094 L 781.613281 1564.914062 C 763.761719 1529.957031 751.316406 1492.542969 740.765625 1454.828125 L 739.023438 1448.605469 C 722.820312 1389.664062 714.316406 1329.304688 708.773438 1268.519531 L 708.183594 1262.128906 C 703.179688 1198.875 702.695312 1133.066406 716.300781 1070.921875 C 717.175781 1066.492188 718.046875 1062.058594 718.910156 1057.625 C 730.066406 1002.195312 750.257812 949.527344 777.054688 899.804688 C 783.636719 887.539062 788.808594 875.152344 793.457031 862.03125 C 800.128906 844.472656 807.519531 827.636719 816.148438 810.925781 C 818.691406 805.957031 821.160156 800.949219 823.632812 795.949219 C 850.53125 741.695312 883.398438 690.847656 921.425781 643.734375 L 925.886719 638.164062 C 934.066406 628.0625 942.539062 618.214844 951.308594 608.617188 C 954.925781 604.609375 958.492188 600.554688 962.003906 596.453125 C 968.816406 588.628906 976.132812 581.371094 983.527344 574.105469 C 988.820312 568.835938 994.082031 563.53125 999.304688 558.195312 C 1011.472656 545.820312 1023.605469 533.964844 1037.25 523.210938 C 1041.550781 519.78125 1045.585938 516.199219 1049.628906 512.472656 C 1062.640625 500.785156 1076.808594 490.484375 1090.796875 480.007812 L 1094.550781 477.1875 C 1110.503906 465.246094 1126.824219 453.828125 1143.511719 442.933594 C 1147.484375 440.335938 1151.449219 437.722656 1155.410156 435.109375 C 1158.179688 433.296875 1160.949219 431.480469 1163.71875 429.667969 L 1167.484375 427.183594 C 1177.992188 420.355469 1188.878906 414.371094 1199.945312 408.5 L 1203.214844 406.761719 C 1331.800781 338.644531 1331.800781 338.644531 1369.070312 338.628906 " fill-opacity="1" fill-rule="nonzero"/></g></svg>