<svg width="25" height="25" viewBox="0 0 25 25" fill="none" xmlns="http://www.w3.org/2000/svg">
<g id="dollar-sign">
<path id="Vector" d="M15.6838 11.3965L10.4103 9.85352C9.79998 9.67773 9.37517 9.10645 9.37517 8.47168C9.37517 7.67578 10.0197 7.03125 10.8156 7.03125H14.0529C14.6486 7.03125 15.2345 7.21191 15.7228 7.54395C16.0207 7.74414 16.4211 7.69531 16.675 7.44629L18.3742 5.78613C18.7209 5.44922 18.672 4.8877 18.2863 4.58984C17.09 3.65234 15.5959 3.12988 14.0627 3.125V0.78125C14.0627 0.351562 13.7111 0 13.2814 0H11.7189C11.2892 0 10.9377 0.351562 10.9377 0.78125V3.125H10.8156C7.70525 3.125 5.20525 5.7959 5.49334 8.96484C5.69842 11.2158 7.41717 13.0469 9.58514 13.6816L14.59 15.1465C15.2004 15.3271 15.6252 15.8936 15.6252 16.5283C15.6252 17.3242 14.9806 17.9688 14.1847 17.9688H10.9474C10.3517 17.9688 9.7658 17.7881 9.27752 17.4561C8.97967 17.2559 8.57928 17.3047 8.32537 17.5537L6.62615 19.2139C6.27947 19.5508 6.3283 20.1123 6.71404 20.4102C7.91033 21.3477 9.40447 21.8701 10.9377 21.875V24.2188C10.9377 24.6484 11.2892 25 11.7189 25H13.2814C13.7111 25 14.0627 24.6484 14.0627 24.2188V21.8652C16.3381 21.8213 18.4719 20.4688 19.2238 18.3154C20.2736 15.3076 18.5109 12.2217 15.6838 11.3965Z" fill="#6A62DC"/>
</g>
</svg>
