<svg width="22" height="26" viewBox="0 0 22 26" fill="none" xmlns="http://www.w3.org/2000/svg">
<path id="cambiarPassword" d="M5.28571 11.6667V6.33333C5.28571 4.91885 5.88775 3.56229 6.95939 2.5621C8.03103 1.5619 9.48448 1 11 1C12.5155 1 13.969 1.5619 15.0406 2.5621C16.1122 3.56229 16.7143 4.91885 16.7143 6.33333V11.6667M1 14.3333C1 13.6261 1.30102 12.9478 1.83684 12.4477C2.37266 11.9476 3.09938 11.6667 3.85714 11.6667H18.1429C18.9006 11.6667 19.6273 11.9476 20.1632 12.4477C20.699 12.9478 21 13.6261 21 14.3333V22.3333C21 23.0406 20.699 23.7189 20.1632 24.219C19.6273 24.719 18.9006 25 18.1429 25H3.85714C3.09938 25 2.37266 24.719 1.83684 24.219C1.30102 23.7189 1 23.0406 1 22.3333V14.3333ZM9.57143 18.3333C9.57143 18.687 9.72194 19.0261 9.98985 19.2761C10.2578 19.5262 10.6211 19.6667 11 19.6667C11.3789 19.6667 11.7422 19.5262 12.0102 19.2761C12.2781 19.0261 12.4286 18.687 12.4286 18.3333C12.4286 17.9797 12.2781 17.6406 12.0102 17.3905C11.7422 17.1405 11.3789 17 11 17C10.6211 17 10.2578 17.1405 9.98985 17.3905C9.72194 17.6406 9.57143 17.9797 9.57143 18.3333Z" stroke="#6A62DC" stroke-width="2" stroke-linecap="round" stroke-linejoin="round"/>
</svg>
