<svg width="24" height="25" viewBox="0 0 24 25" fill="none" xmlns="http://www.w3.org/2000/svg">
<path id="Vector" d="M1.7333 8.83333H22.2666M1.7333 16.1667H22.2666M11.3889 1.5C9.32983 4.79953 8.23822 8.61072 8.23822 12.5C8.23822 16.3893 9.32983 20.2005 11.3889 23.5M12.6111 1.5C14.6701 4.79953 15.7617 8.61072 15.7617 12.5C15.7617 16.3893 14.6701 20.2005 12.6111 23.5M1 12.5C1 13.9445 1.28452 15.3749 1.83733 16.7095C2.39013 18.0441 3.20038 19.2567 4.22183 20.2782C5.24327 21.2996 6.4559 22.1099 7.79048 22.6627C9.12506 23.2155 10.5555 23.5 12 23.5C13.4445 23.5 14.8749 23.2155 16.2095 22.6627C17.5441 22.1099 18.7567 21.2996 19.7782 20.2782C20.7996 19.2567 21.6099 18.0441 22.1627 16.7095C22.7155 15.3749 23 13.9445 23 12.5C23 9.58262 21.8411 6.78473 19.7782 4.72183C17.7153 2.65893 14.9174 1.5 12 1.5C9.08262 1.5 6.28473 2.65893 4.22183 4.72183C2.15893 6.78473 1 9.58262 1 12.5Z" stroke="#6A62DC" stroke-width="2" stroke-linecap="round" stroke-linejoin="round"/>
</svg>
