<svg width="27" height="22" viewBox="0 0 27 22" fill="none" xmlns="http://www.w3.org/2000/svg">
<path id="Vector" d="M13.142 5.5621L4.50036 12.83V20.6742C4.50036 20.8773 4.57937 21.0721 4.72001 21.2157C4.86065 21.3593 5.0514 21.44 5.2503 21.44L10.5027 21.4261C10.701 21.4251 10.8907 21.344 11.0306 21.2005C11.1704 21.057 11.2489 20.8628 11.2489 20.6603V16.0794C11.2489 15.8763 11.3279 15.6815 11.4686 15.5379C11.6092 15.3943 11.7999 15.3136 11.9988 15.3136H14.9986C15.1975 15.3136 15.3883 15.3943 15.5289 15.5379C15.6695 15.6815 15.7486 15.8763 15.7486 16.0794V20.657C15.7482 20.7577 15.7674 20.8576 15.805 20.9508C15.8425 21.044 15.8977 21.1287 15.9674 21.2C16.037 21.2714 16.1198 21.328 16.211 21.3666C16.3021 21.4053 16.3998 21.4252 16.4985 21.4252L21.749 21.44C21.9479 21.44 22.1387 21.3593 22.2793 21.2157C22.42 21.0721 22.499 20.8773 22.499 20.6742V12.8248L13.8592 5.5621C13.7576 5.4785 13.6311 5.4329 13.5006 5.4329C13.3701 5.4329 13.2436 5.4785 13.142 5.5621ZM26.7924 10.502L22.8739 7.20378V0.57435C22.8739 0.422023 22.8147 0.275935 22.7092 0.168223C22.6037 0.0605118 22.4607 0 22.3115 0H19.6867C19.5375 0 19.3944 0.0605118 19.289 0.168223C19.1835 0.275935 19.1242 0.422023 19.1242 0.57435V4.04964L14.9278 0.524094C14.5251 0.185696 14.0198 0.000676462 13.4983 0.000676462C12.9767 0.000676462 12.4714 0.185696 12.0687 0.524094L0.204124 10.502C0.14717 10.5501 0.100049 10.6091 0.065454 10.6758C0.0308591 10.7425 0.00946838 10.8154 0.00250394 10.8906C-0.00446049 10.9657 0.00313788 11.0415 0.0248649 11.1136C0.0465919 11.1857 0.0820218 11.2527 0.12913 11.3109L1.32435 12.7946C1.37133 12.8529 1.42912 12.9012 1.4944 12.9367C1.55968 12.9722 1.63118 12.9942 1.7048 13.0015C1.77842 13.0087 1.85272 13.0011 1.92344 12.979C1.99416 12.9569 2.05992 12.9207 2.11695 12.8726L13.142 3.59974C13.2436 3.51613 13.3701 3.47054 13.5006 3.47054C13.6311 3.47054 13.7576 3.51613 13.8592 3.59974L24.8847 12.8726C24.9417 12.9207 25.0073 12.9569 25.0779 12.9791C25.1486 13.0013 25.2228 13.009 25.2963 13.0019C25.3699 12.9948 25.4414 12.973 25.5067 12.9376C25.5719 12.9023 25.6298 12.8542 25.6769 12.796L26.8721 11.3123C26.9191 11.2538 26.9544 11.1864 26.9759 11.114C26.9974 11.0416 27.0046 10.9655 26.9972 10.8902C26.9898 10.8149 26.9679 10.7419 26.9327 10.6752C26.8976 10.6086 26.8499 10.5497 26.7924 10.502Z" fill="#6A62DC"/>
</svg>
