<svg width="22" height="24" viewBox="0 0 22 24" fill="none" xmlns="http://www.w3.org/2000/svg">
<path id="LogOut" d="M13.2222 6.5V3.75C13.2222 3.02065 12.9881 2.32118 12.5713 1.80546C12.1546 1.28973 11.5894 1 11 1H3.22222C2.63285 1 2.06762 1.28973 1.65087 1.80546C1.23413 2.32118 1 3.02065 1 3.75V20.25C1 20.9793 1.23413 21.6788 1.65087 22.1945C2.06762 22.7103 2.63285 23 3.22222 23H11C11.5894 23 12.1546 22.7103 12.5713 22.1945C12.9881 21.6788 13.2222 20.9793 13.2222 20.25V17.5M7.66667 12H21M21 12L17.6667 7.875M21 12L17.6667 16.125" stroke="#6A62DC" stroke-width="2" stroke-linecap="round" stroke-linejoin="round"/>
</svg>
