<svg width="23" height="26" viewBox="0 0 23 26" fill="none" xmlns="http://www.w3.org/2000/svg">
<g id="Vector">
<path d="M14.0462 21.75C15.1274 21.75 15.6987 23.03 14.9774 23.835C14.5089 24.3593 13.9348 24.7787 13.2929 25.0656C12.6509 25.3526 11.9556 25.5006 11.2524 25.5C10.5492 25.5006 9.8539 25.3526 9.21195 25.0656C8.57 24.7787 7.99594 24.3593 7.5274 23.835C6.8374 23.065 7.3299 21.8612 8.3199 21.7588L8.4574 21.7512L14.0462 21.75Z" fill="#6A62DC"/>
<path d="M11.2524 0.5C12.9499 0.5 14.3849 1.62875 14.8461 3.17625L14.9036 3.39L14.9136 3.44375C16.2916 4.22113 17.4658 5.31388 18.3401 6.6325C19.2144 7.95112 19.7639 9.4581 19.9436 11.03L19.9786 11.3888L20.0024 11.75V15.4137L20.0286 15.5838C20.1998 16.5048 20.7095 17.3284 21.4574 17.8925L21.6661 18.0387L21.8686 18.1625C22.9436 18.7712 22.5686 20.37 21.3974 20.4925L21.2524 20.5H1.25238C-0.0326245 20.5 -0.481375 18.795 0.636126 18.1625C1.11241 17.893 1.52393 17.5224 1.8418 17.077C2.15967 16.6315 2.37617 16.1218 2.47613 15.5838L2.50238 15.405L2.50363 11.6925C2.57984 10.0598 3.05508 8.47076 3.88773 7.06433C4.72039 5.65791 5.88508 4.47701 7.27988 3.625L7.58988 3.4425L7.60238 3.38875C7.77919 2.64128 8.18106 1.96605 8.75373 1.45417C9.32641 0.942295 10.0423 0.618418 10.8049 0.52625L11.0324 0.505L11.2524 0.5Z" fill="#6A62DC"/>
<path d="M14.0462 21.75C15.1274 21.75 15.6987 23.03 14.9774 23.835C14.5089 24.3593 13.9348 24.7787 13.2929 25.0656C12.6509 25.3526 11.9556 25.5006 11.2524 25.5C10.5492 25.5006 9.8539 25.3526 9.21195 25.0656C8.57 24.7787 7.99594 24.3593 7.5274 23.835C6.8374 23.065 7.3299 21.8612 8.3199 21.7588L8.4574 21.7512L14.0462 21.75Z" stroke="#6A62DC"/>
<path d="M11.2524 0.5C12.9499 0.5 14.3849 1.62875 14.8461 3.17625L14.9036 3.39L14.9136 3.44375C16.2916 4.22113 17.4658 5.31388 18.3401 6.6325C19.2144 7.95112 19.7639 9.4581 19.9436 11.03L19.9786 11.3888L20.0024 11.75V15.4137L20.0286 15.5838C20.1998 16.5048 20.7095 17.3284 21.4574 17.8925L21.6661 18.0387L21.8686 18.1625C22.9436 18.7712 22.5686 20.37 21.3974 20.4925L21.2524 20.5H1.25238C-0.0326245 20.5 -0.481375 18.795 0.636126 18.1625C1.11241 17.893 1.52393 17.5224 1.8418 17.077C2.15967 16.6315 2.37617 16.1218 2.47613 15.5838L2.50238 15.405L2.50363 11.6925C2.57984 10.0598 3.05508 8.47076 3.88773 7.06433C4.72039 5.65791 5.88508 4.47701 7.27988 3.625L7.58988 3.4425L7.60238 3.38875C7.77919 2.64128 8.18106 1.96605 8.75373 1.45417C9.32641 0.942295 10.0423 0.618418 10.8049 0.52625L11.0324 0.505L11.2524 0.5Z" stroke="#6A62DC"/>
</g>
</svg>
