<svg width="8" height="20" viewBox="0 0 8 20" fill="none" xmlns="http://www.w3.org/2000/svg">
<path id="Vector" d="M0.979167 15.8837H1.70833V10.617H0.979167C0.576448 10.617 0.25 10.2905 0.25 9.88781V8.14616C0.25 7.74344 0.576448 7.41699 0.979167 7.41699H5.0625C5.46522 7.41699 5.79167 7.74344 5.79167 8.14616V15.8837H6.52083C6.92355 15.8837 7.25 16.2101 7.25 16.6128V18.3545C7.25 18.7572 6.92355 19.0837 6.52083 19.0837H0.979167C0.576448 19.0837 0.25 18.7572 0.25 18.3545V16.6128C0.25 16.2101 0.576448 15.8837 0.979167 15.8837ZM3.75 0.416992C2.30023 0.416992 1.125 1.59223 1.125 3.04199C1.125 4.49176 2.30023 5.66699 3.75 5.66699C5.19977 5.66699 6.375 4.49176 6.375 3.04199C6.375 1.59223 5.19973 0.416992 3.75 0.416992Z" fill="#6A62DC"/>
</svg>
